# xmcd
#
# Track frame offsets:
#       150
#       20019
#       34053
#       52078
#       68118
#       92301
#       111425
#       128077
#       150120
#       168840
#       187564
#       201745
#       220232
#       235963
#       252666
#
# Disc length: 3609 seconds
#
# Revision: 1
# Processed by: cddbd v1.4PL0 Copyright (c) Steve Scherf et al.
# Submitted via: MusiCat 1.1
#
DISCID=cb0e170f
DTITLE=Various Artist - Aussie Rock - Disc 1
DYEAR=1900
DGENRE=
TTITLE0=Spectrum/I'll Be There
TTITLE1=Rose tattoo/ Bad Boy For Love
TTITLE2=LRB/ Help Is On Its Way
TTITLE3=Masters Apprentices/ Turn Up Your Radio
TTITLE4=Australian Crawl/ Reckless
TTITLE5=The Church/ Unguarded Moment
TTITLE6=Little Heroes/ One Perfect Day
TTITLE7=Pseudo Echo/ Funky Town
TTITLE8=Choir Boys/ Run To Paradise
TTITLE9=Daddy Cool/ Eagle Rock
TTITLE10=Hush/ Bony Morony
TTITLE11=Dragon/ Are You Old Enough
TTITLE12=Noiseworks/ Take Me Back
TTITLE13=Men At Work/ Downunder
TTITLE14=Misex/ Computer Games
EXTD=0\n\n\n
EXTT0=
EXTT1=
EXTT2=
EXTT3=
EXTT4=
EXTT5=
EXTT6=
EXTT7=
EXTT8=
EXTT9=
EXTT10=
EXTT11=
EXTT12=
EXTT13=
EXTT14=
PLAYORDER=
